<?xml version="1.0" encoding="UTF-8"?>
<!DOCTYPE svg PUBLIC "-//W3C//DTD SVG 1.1//EN" "http://www.w3.org/Graphics/SVG/1.1/DTD/svg11.dtd">
<svg version="1.1" id="Layer_1" xmlns="http://www.w3.org/2000/svg" xmlns:xlink="http://www.w3.org/1999/xlink" x="0px" y="0px" width="32px" height="32px" viewBox="0 0 32 32" enable-background="new 0 0 32 32" xml:space="preserve">
  <g id="icon">
    <path d="M23.974,16H1.382c-0.435,0,-0.84,-0.234,-1.057,-0.612c-0.217,-0.377,-0.215,-0.846,0.004,-1.221L7.073,2.605C7.29,2.232,7.694,2,8.126,2h22.593c0.435,0,0.84,0.235,1.057,0.612s0.215,0.846,-0.004,1.222l-6.744,11.562C24.809,15.768,24.406,16,23.974,16zM2.741,14h20.785l5.833,-10H8.574L2.741,14z" fill="#010101"/>
    <path d="M31.776,10.612c-0.217,-0.377,-0.622,-0.612,-1.057,-0.612H30.5l-1.141,2l-5.833,10H2.741l2.633,-4.5H3.059L0.328,22.167c-0.219,0.376,-0.221,0.844,-0.004,1.221c0.217,0.377,0.622,0.612,1.057,0.612h22.593c0.432,0,0.835,-0.232,1.053,-0.605l6.744,-11.562C31.991,11.458,31.992,10.99,31.776,10.612z" fill="#010101"/>
    <path d="M31.776,18.612c-0.217,-0.377,-0.622,-0.612,-1.057,-0.612H30.5l-1.141,2l-5.833,10H2.741l2.633,-4.5H3.059L0.328,30.167c-0.219,0.376,-0.221,0.844,-0.004,1.221c0.217,0.377,0.622,0.612,1.057,0.612h22.593c0.432,0,0.835,-0.232,1.053,-0.605l6.744,-11.562C31.991,19.458,31.992,18.99,31.776,18.612z" fill="#010101"/>
  </g>
</svg>
